
<svg aria-hidden="true" focusable="false" xmlns="http://www.w3.org/2000/svg" viewBox="0 0 799.35 419.81" height="49">
  <g fill="currentColor" fill-rule="nonzero">
    <path d="M578.24 91.08c8.57 17.61 33.87-7 29.61-19.5-13.36-10.03-35.33 1.42-29.61 19.5z"/>
    <path d="M799.35 9.78c-20.6-21.88-27.26-3-30.2 17.41-9.63 31.87-26.46 63.83-43 93.09-12.56-39.28-54.75-6.5-64.39 18.9-1.17 4.51-5.17 3.84-9 4.1-11.83 17-15 46.49-35.39 54.81-13.23-43.48 40.51-94.77 57.58-136.31 19.21-25.59-7.22-37.68-24.19-22.7-7 35.24-29.58 65.47-42.59 98.7-2.65 10.83-6.66 5.27-11.21 10.6-13.3 18.54-19.91 49.85-41.79 59-11.4-26.23 13.69-62.26 26.79-87.31-31.27-17.17-29.93-8.46-37.59 20.3-1.76 3.16-1.3 9.27-5.91 8.4-10.31 2.94-12.33 19.23-19 27.2-49.49 43.65.49-42.22-4.49-61.19-.1-4.45-20.15.86-23.11-.11 6.69 22.09-5.18 45.1-11.49 65.9C428.9 288 449.63 164 474.35 128c-1.59-7.75-22.78-10-31.4-7.4-2.64 13 .77 39.82-17.7 38.2 14.09 23.53-1.95 60.57-17.6 80.4-28.32-10.6 49.32-114.16-10.91-115-6.59 8.25 3.1 41.47-16.4 39.6-9.45 22.11-15.31 47.8-25.8 69.2-31.2 76.33-66.74-8.28-29.9-19.5 38.06-17.82 40.2-62.5 50.5-97.5-12-1.12-25.13 1.88-31.3 12.6-15.91 1.83-33.28 11.12-43.1 24-23.95 16.23-40.49 140.12-61.09 126.71 4.79-57.2 13.21-117.14 36.19-170.11 13.81-22.36-15.92-14.77-28.4-13.7 1 16.42-66.56 257.94-70 190.81C187.8 227 193.23 159 222.84 107.08c16-16.09-13.63-9.76-25.1-10.3-4.14 3.22-3.28 13.26-7.4 18.6-22.48 85.82-12.4 12.7-59.9 45.8-27.1 19.52-41.87 254.48 12.9 160.11 12.4-22.42 12.37-39.49 13.4-4.61 21.16 48.53 58.25-59.87 62.6-80.09-10.46 92.72 29.16 105.65 64.91-27.59 7.27 146.34 91 28.08 99.38-15.7-10.91 45.53 7.28 98.9 43.92 34.9 3.09-.08 3.45 21.11 15.59 17.2 22.7-8 30.21-35 43.3-52.79 10.22 8.9 24.16 5 33.1-3.91 7.35-4.74 17.79-29.66 15.3-20.3-20.84 65.44 35 63.33 55.11 10.8 16.47-35.6-11.63 31.38 18 30.5 31.14 4.8 45.95-67.36 45.6-27.9 2.47 23.48 34.37 23.31 44.8 5.4 1.89 10.39 11.54 13.41 20.8 11.3 23-5.31 38.48-32.1 47-53.69.13-1-12.76-.5-13.81-.81-2.31.06-4.53-.18-6.6-.2 5.11 17.42-9.22 43.41-26.5 47 .35-55.3 80.22-121.61 80.11-181.02zm-81.11 117.8c-16.07-6-10 47.68-32.9 62.7-37.95 7.39 22.32-99.83 32.9-62.7zm-407.1 81c2.59-23 11.86-60.53 29.7-69.8-4.67 23.45.46 63.22-29.7 69.8zM127 299.78c-1.38-18.41 17.44-178.4 37.41-110.4 9.97 18.9-31.62 173.56-37.41 110.4zm595.9-186.5c1.53 2.75 1.87 6.19 3.81 8.64-2.44-6.75-13.36-22.34-3.77-8.64zM679.44 37a6.13 6.13 0 011.8 3.47c.22-1.27-3.36-5.05-1.8-3.47z"/>
    <path d="M112.24 132.08c6.83-3.76 21.32-31.29 8.21-37-8.72 17.15-15.39 27.12-35.61 34.6s-68.94 26-52.3 69.9c2.68 6.37 9.43 21.75 18.8 17.2-6.34-28.6-4.61-51.86 26.11-71.78-7.58 19.11-12.87 37.43-18 59-13.75 49.34-21.72 101.52-29.3 151.38-53.59 17.62-21.39 80.84-11.6 60.41-30.8-59.58 97.3-53.45 67.09-118.51-2.5-8.23-10.74-3.63-7.89 3.8 7.13 14.39-17.17 46.39-24.72 41.35-7.7-5.33 34.44-198.55 59.21-210.35z"/>
  </g>
</svg>